<svg width="771" height="760" viewBox="0 0 771 760" fill="none" xmlns="http://www.w3.org/2000/svg">
  <defs>
    <linearGradient id="outerA" x1="62" y1="515" x2="516" y2="61" gradientUnits="userSpaceOnUse">
      <stop stop-color="#8EA5B0"/>
      <stop offset="0.56" stop-color="#B8E7D5"/>
      <stop offset="1" stop-color="#D8F4E3"/>
    </linearGradient>
    <linearGradient id="outerB" x1="706" y1="258" x2="275" y2="684" gradientUnits="userSpaceOnUse">
      <stop stop-color="#90AAB4"/>
      <stop offset="0.5" stop-color="#BDE7D8"/>
      <stop offset="1" stop-color="#D8F4E3"/>
    </linearGradient>
  </defs>
  <path d="M406.829 6C436.341 23.91 463.34 48.713 484.027 79.548C507.049 113.866 521.318 154.511 524.551 198.29L525.136 206.216L497.134 206.456C456.062 206.993 414.798 212.708 377.551 224.518C336.075 237.67 299.877 259.67 273.144 291.886C246.62 323.853 232.749 363.225 236.656 412.532L237.14 418.654H36.342V402.954C71.942 389.152 105.297 370.73 136.102 348.248C171.239 322.604 203.304 292.105 232.354 258.605C264.307 221.752 294.029 181.871 322.466 142.996L406.829 6Z" fill="url(#outerA)"/>
  <path d="M734.658 234.266H538.041L538.53 240.467C542.428 289.904 528.508 329.413 501.614 361.453C474.536 393.711 438.028 415.636 396.157 428.676C358.477 440.41 316.496 446.045 274.743 446.437L260.093 446.57V462.248C260.093 500.855 270.899 538.331 291.308 570.835C313.426 606.071 345.176 637.271 393.708 676.95L734.658 313.083V234.266Z" fill="url(#outerB)"/>
  <path d="M507.352 206.767C458.588 206.767 413.718 212.817 374.458 225.238C304.691 247.298 236.174 299.662 235.257 412.739C266.726 412.739 316.201 410.842 368.659 394.567C438.865 372.795 506.009 320.39 507.352 206.767Z" fill="#145E67"/>
  <path d="M260.069 446.691C308.833 446.691 353.703 440.64 392.963 428.219C462.73 406.159 531.247 353.795 532.164 240.719C500.695 240.719 451.22 242.616 398.761 258.891C328.556 280.663 261.412 333.067 260.069 446.691Z" fill="#145E67"/>
</svg>
